{
  "source": "C:\\Users\\Peter\\Desktop\\stuff\\MIUN\\quantitative_research\\video_compression\\videos\\UVG\\Beauty_1920x1080_120fps_420_8bit_YUV.y4m",
  "output": "C:\\Users\\Peter\\Desktop\\stuff\\MIUN\\quantitative_research\\video_compression\\compressed_videos\\UVG\\hevc\\2\\Beauty_1920x1080_120fps_420_8bit_YUV_hevc.mp4",
  "codec": "hevc",
  "ok": "[yuv4mpegpipe @ 000001a8136866c0] Stream #0: not enough frames to estimate rate; consider increasing probesize\nInput #0, yuv4mpegpipe, from 'C:\\Users\\Peter\\Desktop\\stuff\\MIUN\\quantitative_research\\video_compression\\videos\\UVG\\Beauty_1920x1080_120fps_420_8bit_YUV.y4m':\n  Duration: 00:00:05.00, start: 0.000000, bitrate: 2985989 kb/s\n  Stream #0:0: Video: rawvideo (I420 / 0x30323449), yuv420p(progressive), 1920x1080, 120 fps, 120 tbr, 120 tbn\n[out#0/mp4 @ 000001a81368b640] Codec AVOption b:a (set bitrate (in bits/s)) has not been used for any stream. The most likely reason is either wrong type (e.g. a video option with no video streams) or that it is a private option of some decoder which was not actually used for any stream.\nStream mapping:\n  Stream #0:0 -> #0:0 (rawvideo (native) -> hevc (libx265))\nPress [q] to stop, [?] for help\n[libx265 @ 000001a81368cac0] Unknown option: \"aq-mode.\nx265 [info]: HEVC encoder version 4.1+190-8f11c33ac\nx265 [info]: build info [Windows][GCC 15.1.0][64 bit] 10bit\nx265 [info]: using cpu capabilities: MMX2 SSE2Fast LZCNT SSSE3 SSE4.2 AVX FMA3 BMI2 AVX2\nx265 [info]: Main 10 profile, Level-5 (Main tier)\nx265 [info]: Thread pool created using 12 threads\nx265 [info]: Slices                              : 1\nx265 [info]: frame threads / pool features       : 3 / wpp(17 rows)\nx265 [info]: Coding QT: max CU size, min CU size : 64 / 8\nx265 [info]: Residual QT: max TU size, max depth : 32 / 1 inter / 1 intra\nx265 [info]: ME / range / subpel / merge         : star / 57 / 3 / 3\nx265 [info]: Keyframe min / max / scenecut / bias  : 25 / 250 / 40 / 5.00 \nx265 [info]: Lookahead / bframes / badapt        : 25 / 4 / 2\nx265 [info]: b-pyramid / weightp / weightb       : 1 / 1 / 0\nx265 [info]: References / ref-limit  cu / depth  : 4 / on / on\nx265 [info]: AQ: mode / str / qg-size / cu-tree  : 2 / 1.0 / 32 / 1\nx265 [info]: Rate Control / qCompress            : ABR-2000 kbps / 0.60\nx265 [info]: VBV/HRD buffer / max-rate / init    : 2000 / 2000 / 0.750\nx265 [info]: tools: rect limit-modes rd=4 psy-rd=2.00 rdoq=2 psy-rdoq=1.00\nx265 [info]: tools: rskip mode=1 signhide tmvp strong-intra-smoothing lslices=4\nx265 [info]: tools: deblock sao dhdr10-info\nOutput #0, mp4, to 'C:\\Users\\Peter\\Desktop\\stuff\\MIUN\\quantitative_research\\video_compression\\compressed_videos\\UVG\\hevc\\2\\Beauty_1920x1080_120fps_420_8bit_YUV_hevc.mp4':\n  Metadata:\n    encoder         : Lavf62.3.100\n  Stream #0:0: Video: hevc (hev1 / 0x31766568), yuv420p10le(tv, progressive), 1920x1080, q=2-31, 2000 kb/s, 120 fps, 15360 tbn\n    Metadata:\n      encoder         : Lavc62.11.100 libx265\n    Side data:\n      cpb: bitrate max/min/avg: 2000000/0/2000000 buffer size: 2000000 vbv_delay: N/A\nframe=    0 fps=0.0 q=0.0 size=       0KiB time=N/A bitrate=N/A speed=N/A elapsed=0:00:00.52    \nframe=    6 fps=5.8 q=51.0 size=       0KiB time=00:00:00.03 bitrate=  10.6kbits/s speed=0.0323x elapsed=0:00:01.03    \nframe=   12 fps=7.8 q=41.4 size=       0KiB time=00:00:00.08 bitrate=   4.2kbits/s speed=0.0539x elapsed=0:00:01.54    \nframe=   18 fps=8.7 q=44.1 size=       0KiB time=00:00:00.13 bitrate=   2.6kbits/s speed=0.0644x elapsed=0:00:02.06    \nframe=   23 fps=8.9 q=43.0 size=       0KiB time=00:00:00.17 bitrate=   2.0kbits/s speed=0.0679x elapsed=0:00:02.57    \nframe=   28 fps=9.0 q=42.1 size=       0KiB time=00:00:00.21 bitrate=   1.6kbits/s speed=0.0699x elapsed=0:00:03.09    \nframe=   33 fps=9.1 q=42.3 size=       0KiB time=00:00:00.25 bitrate=   1.4kbits/s speed=0.0716x elapsed=0:00:03.61    \nframe=   38 fps=9.2 q=41.9 size=       0KiB time=00:00:00.30 bitrate=   1.2kbits/s speed=0.0727x elapsed=0:00:04.12    \nframe=   43 fps=9.2 q=41.4 size=       0KiB time=00:00:00.34 bitrate=   1.0kbits/s speed=0.0734x elapsed=0:00:04.65    \nframe=   47 fps=9.1 q=38.8 size=       0KiB time=00:00:00.37 bitrate=   0.9kbits/s speed=0.0728x elapsed=0:00:05.15    \nframe=   53 fps=9.3 q=41.3 size=       0KiB time=00:00:00.42 bitrate=   0.8kbits/s speed=0.0748x elapsed=0:00:05.67    \nframe=   57 fps=9.2 q=38.7 size=       0KiB time=00:00:00.45 bitrate=   0.8kbits/s speed=0.0741x elapsed=0:00:06.18    \nframe=   62 fps=9.2 q=38.6 size=       0KiB time=00:00:00.50 bitrate=   0.7kbits/s speed=0.0746x elapsed=0:00:06.70    \nframe=   67 fps=9.3 q=38.4 size=       0KiB time=00:00:00.54 bitrate=   0.6kbits/s speed=0.0749x elapsed=0:00:07.22    \nframe=   71 fps=9.2 q=42.5 size=       0KiB time=00:00:00.57 bitrate=   0.6kbits/s speed=0.0743x elapsed=0:00:07.73    \nframe=   75 fps=9.1 q=41.3 size=       0KiB time=00:00:00.60 bitrate=   0.6kbits/s speed=0.0737x elapsed=0:00:08.25    \nframe=   80 fps=9.1 q=41.9 size=       0KiB time=00:00:00.65 bitrate=   0.5kbits/s speed=0.0741x elapsed=0:00:08.76    \nframe=   84 fps=9.1 q=42.2 size=       0KiB time=00:00:00.68 bitrate=   0.5kbits/s speed=0.0737x elapsed=0:00:09.27    \nframe=   88 fps=9.0 q=40.9 size=       0KiB time=00:00:00.71 bitrate=   0.5kbits/s speed=0.0731x elapsed=0:00:09.80    \nframe=   91 fps=8.8 q=42.4 size=       0KiB time=00:00:00.74 bitrate=   0.5kbits/s speed=0.0719x elapsed=0:00:10.31    \nframe=   95 fps=8.8 q=41.8 size=       0KiB time=00:00:00.77 bitrate=   0.5kbits/s speed=0.0716x elapsed=0:00:10.82    \nframe=   99 fps=8.7 q=42.3 size=       0KiB time=00:00:00.80 bitrate=   0.4kbits/s speed=0.0712x elapsed=0:00:11.34    \nframe=  103 fps=8.7 q=41.0 size=       0KiB time=00:00:00.84 bitrate=   0.4kbits/s speed=0.071x elapsed=0:00:11.86    \nframe=  107 fps=8.6 q=39.0 size=       0KiB time=00:00:00.87 bitrate=   0.4kbits/s speed=0.0707x elapsed=0:00:12.38    \nframe=  111 fps=8.6 q=42.6 size=       0KiB time=00:00:00.90 bitrate=   0.4kbits/s speed=0.0704x elapsed=0:00:12.89    \nframe=  115 fps=8.6 q=42.3 size=       0KiB time=00:00:00.94 bitrate=   0.4kbits/s speed=0.0702x elapsed=0:00:13.40    \nframe=  119 fps=8.5 q=42.4 size=       0KiB time=00:00:00.97 bitrate=   0.4kbits/s speed=0.07x elapsed=0:00:13.92    \nframe=  123 fps=8.5 q=41.3 size=       0KiB time=00:00:01.00 bitrate=   0.3kbits/s speed=0.0698x elapsed=0:00:14.43    \nframe=  127 fps=8.5 q=39.1 size=       0KiB time=00:00:01.04 bitrate=   0.3kbits/s speed=0.0696x elapsed=0:00:14.95    \nframe=  131 fps=8.5 q=42.7 size=       0KiB time=00:00:01.07 bitrate=   0.3kbits/s speed=0.0695x elapsed=0:00:15.47    \nframe=  135 fps=8.4 q=42.1 size=     256KiB time=00:00:01.10 bitrate=1892.5kbits/s speed=0.0693x elapsed=0:00:15.99    \nframe=  139 fps=8.4 q=42.2 size=     256KiB time=00:00:01.14 bitrate=1837.2kbits/s speed=0.0692x elapsed=0:00:16.50    \nframe=  143 fps=8.4 q=41.0 size=     256KiB time=00:00:01.17 bitrate=1785.1kbits/s speed=0.0691x elapsed=0:00:17.01    \nframe=  148 fps=8.4 q=41.1 size=     256KiB time=00:00:01.21 bitrate=1724.0kbits/s speed=0.0694x elapsed=0:00:17.53    \nframe=  152 fps=8.4 q=38.8 size=     256KiB time=00:00:01.25 bitrate=1678.0kbits/s speed=0.0693x elapsed=0:00:18.04    \nframe=  156 fps=8.4 q=42.6 size=     256KiB time=00:00:01.28 bitrate=1634.4kbits/s speed=0.0691x elapsed=0:00:18.56    \nframe=  160 fps=8.4 q=42.1 size=     256KiB time=00:00:01.31 bitrate=1593.0kbits/s speed=0.069x elapsed=0:00:19.07    \nframe=  164 fps=8.4 q=41.2 size=     256KiB time=00:00:01.35 bitrate=1553.7kbits/s speed=0.0689x elapsed=0:00:19.59    \nframe=  169 fps=8.4 q=41.2 size=     256KiB time=00:00:01.39 bitrate=1507.2kbits/s speed=0.0692x elapsed=0:00:20.11    \nframe=  173 fps=8.4 q=40.8 size=     256KiB time=00:00:01.42 bitrate=1471.9kbits/s speed=0.0691x elapsed=0:00:20.62    \nframe=  177 fps=8.4 q=38.8 size=     256KiB time=00:00:01.45 bitrate=1438.3kbits/s speed=0.069x elapsed=0:00:21.14    \nframe=  181 fps=8.4 q=42.6 size=     256KiB time=00:00:01.49 bitrate=1406.1kbits/s speed=0.0689x elapsed=0:00:21.65    \nframe=  185 fps=8.3 q=42.1 size=     256KiB time=00:00:01.52 bitrate=1375.4kbits/s speed=0.0688x elapsed=0:00:22.18    \nframe=  189 fps=8.3 q=41.7 size=     256KiB time=00:00:01.55 bitrate=1346.0kbits/s speed=0.0687x elapsed=0:00:22.69    \nframe=  193 fps=8.3 q=40.5 size=     256KiB time=00:00:01.59 bitrate=1317.8kbits/s speed=0.0686x elapsed=0:00:23.20    \nframe=  197 fps=8.3 q=38.6 size=     256KiB time=00:00:01.62 bitrate=1290.8kbits/s speed=0.0685x elapsed=0:00:23.71    \nframe=  200 fps=8.3 q=42.0 size=     256KiB time=00:00:01.65 bitrate=1271.2kbits/s speed=0.0681x elapsed=0:00:24.23    \nframe=  204 fps=8.2 q=41.7 size=     256KiB time=00:00:01.68 bitrate=1246.0kbits/s speed=0.068x elapsed=0:00:24.75    \nframe=  208 fps=8.2 q=40.5 size=     256KiB time=00:00:01.71 bitrate=1221.8kbits/s speed=0.0679x elapsed=0:00:25.27    \nframe=  212 fps=8.2 q=38.5 size=     256KiB time=00:00:01.75 bitrate=1198.6kbits/s speed=0.0679x elapsed=0:00:25.78    \nframe=  216 fps=8.2 q=42.2 size=     256KiB time=00:00:01.78 bitrate=1176.2kbits/s speed=0.0678x elapsed=0:00:26.29    \nframe=  220 fps=8.2 q=41.8 size=     256KiB time=00:00:01.81 bitrate=1154.6kbits/s speed=0.0678x elapsed=0:00:26.81    \nframe=  224 fps=8.2 q=42.2 size=     256KiB time=00:00:01.85 bitrate=1133.8kbits/s speed=0.0677x elapsed=0:00:27.32    \nframe=  229 fps=8.2 q=42.3 size=     256KiB time=00:00:01.89 bitrate=1108.8kbits/s speed=0.0679x elapsed=0:00:27.84    \nframe=  233 fps=8.2 q=40.9 size=     256KiB time=00:00:01.92 bitrate=1089.6kbits/s speed=0.0679x elapsed=0:00:28.36    \nframe=  238 fps=8.2 q=40.8 size=     256KiB time=00:00:01.96 bitrate=1066.5kbits/s speed=0.0681x elapsed=0:00:28.87    \nframe=  244 fps=8.3 q=42.4 size=     256KiB time=00:00:02.01 bitrate=1040.1kbits/s speed=0.0686x elapsed=0:00:29.39    \nframe=  251 fps=8.4 q=42.8 size=     256KiB time=00:00:02.07 bitrate=1010.8kbits/s speed=0.0694x elapsed=0:00:29.90    \nframe=  259 fps=8.5 q=42.6 size=     512KiB time=00:00:02.14 bitrate=1958.6kbits/s speed=0.0704x elapsed=0:00:30.41    \nframe=  264 fps=8.5 q=42.7 size=     512KiB time=00:00:02.18 bitrate=1921.2kbits/s speed=0.0706x elapsed=0:00:30.94    \nframe=  270 fps=8.6 q=42.5 size=     512KiB time=00:00:02.23 bitrate=1878.2kbits/s speed=0.071x elapsed=0:00:31.46    \nframe=  276 fps=8.6 q=42.7 size=     512KiB time=00:00:02.28 bitrate=1837.1kbits/s speed=0.0714x elapsed=0:00:31.96    \nframe=  282 fps=8.7 q=38.8 size=     512KiB time=00:00:02.33 bitrate=1797.7kbits/s speed=0.0718x elapsed=0:00:32.48    \nframe=  288 fps=8.7 q=41.2 size=     512KiB time=00:00:02.38 bitrate=1760.0kbits/s speed=0.0722x elapsed=0:00:32.99    \nframe=  294 fps=8.8 q=42.3 size=     512KiB time=00:00:02.43 bitrate=1723.8kbits/s speed=0.0726x elapsed=0:00:33.52    \nframe=  300 fps=8.8 q=42.7 size=     512KiB time=00:00:02.48 bitrate=1689.1kbits/s speed=0.073x elapsed=0:00:34.04    \nframe=  307 fps=8.9 q=38.7 size=     512KiB time=00:00:02.54 bitrate=1650.4kbits/s speed=0.0736x elapsed=0:00:34.55    \nframe=  314 fps=9.0 q=42.5 size=     512KiB time=00:00:02.60 bitrate=1613.3kbits/s speed=0.0741x elapsed=0:00:35.06    \nframe=  319 fps=9.0 q=42.4 size=     512KiB time=00:00:02.64 bitrate=1587.9kbits/s speed=0.0743x elapsed=0:00:35.57    \nframe=  326 fps=9.0 q=42.4 size=     512KiB time=00:00:02.70 bitrate=1553.6kbits/s speed=0.0748x elapsed=0:00:36.09    \nframe=  332 fps=9.1 q=38.5 size=     512KiB time=00:00:02.75 bitrate=1525.3kbits/s speed=0.0751x elapsed=0:00:36.61    \nframe=  339 fps=9.1 q=42.4 size=     512KiB time=00:00:02.80 bitrate=1493.6kbits/s speed=0.0756x elapsed=0:00:37.12    \nframe=  345 fps=9.2 q=42.4 size=     512KiB time=00:00:02.85 bitrate=1467.5kbits/s speed=0.0759x elapsed=0:00:37.64    \nframe=  350 fps=9.2 q=42.3 size=     512KiB time=00:00:02.90 bitrate=1446.4kbits/s speed=0.076x elapsed=0:00:38.16    \nframe=  358 fps=9.3 q=40.7 size=     512KiB time=00:00:02.96 bitrate=1413.9kbits/s speed=0.0767x elapsed=0:00:38.67    \nframe=  365 fps=9.3 q=42.0 size=     512KiB time=00:00:03.02 bitrate=1386.7kbits/s speed=0.0772x elapsed=0:00:39.19    \nframe=  371 fps=9.3 q=42.4 size=     512KiB time=00:00:03.07 bitrate=1364.1kbits/s speed=0.0774x elapsed=0:00:39.70    \nframe=  378 fps=9.4 q=40.7 size=     512KiB time=00:00:03.13 bitrate=1338.7kbits/s speed=0.0779x elapsed=0:00:40.22    \nframe=  384 fps=9.4 q=42.0 size=     768KiB time=00:00:03.18 bitrate=1976.5kbits/s speed=0.0781x elapsed=0:00:40.73    \nframe=  390 fps=9.5 q=41.7 size=     768KiB time=00:00:03.23 bitrate=1945.9kbits/s speed=0.0784x elapsed=0:00:41.24    \nframe=  397 fps=9.5 q=38.5 size=     768KiB time=00:00:03.29 bitrate=1911.4kbits/s speed=0.0788x elapsed=0:00:41.77    \nframe=  404 fps=9.6 q=42.1 size=     768KiB time=00:00:03.35 bitrate=1878.2kbits/s speed=0.0792x elapsed=0:00:42.27    \nframe=  410 fps=9.6 q=42.0 size=     768KiB time=00:00:03.40 bitrate=1850.5kbits/s speed=0.0794x elapsed=0:00:42.79    \nframe=  416 fps=9.6 q=42.5 size=     768KiB time=00:00:03.45 bitrate=1823.7kbits/s speed=0.0796x elapsed=0:00:43.32    \nframe=  422 fps=9.6 q=38.4 size=     768KiB time=00:00:03.50 bitrate=1797.7kbits/s speed=0.0799x elapsed=0:00:43.82    \nframe=  429 fps=9.7 q=42.0 size=     768KiB time=00:00:03.55 bitrate=1768.2kbits/s speed=0.0802x elapsed=0:00:44.34    \nframe=  435 fps=9.7 q=42.0 size=     768KiB time=00:00:03.60 bitrate=1743.7kbits/s speed=0.0804x elapsed=0:00:44.85    \nframe=  441 fps=9.7 q=41.9 size=     768KiB time=00:00:03.65 bitrate=1719.9kbits/s speed=0.0806x elapsed=0:00:45.37    \nframe=  447 fps=9.7 q=38.5 size=     768KiB time=00:00:03.70 bitrate=1696.7kbits/s speed=0.0808x elapsed=0:00:45.89    \nframe=  454 fps=9.8 q=42.4 size=     768KiB time=00:00:03.76 bitrate=1670.4kbits/s speed=0.0812x elapsed=0:00:46.40    \nframe=  460 fps=9.8 q=42.7 size=     768KiB time=00:00:03.81 bitrate=1648.5kbits/s speed=0.0813x elapsed=0:00:46.92    \nframe=  468 fps=9.9 q=40.6 size=     768KiB time=00:00:03.88 bitrate=1620.2kbits/s speed=0.0819x elapsed=0:00:47.44    \nframe=  475 fps=9.9 q=41.9 size=     768KiB time=00:00:03.94 bitrate=1596.2kbits/s speed=0.0822x elapsed=0:00:47.95    \nframe=  482 fps=9.9 q=38.4 size=     768KiB time=00:00:04.00 bitrate=1573.0kbits/s speed=0.0825x elapsed=0:00:48.46    \nframe=  490 fps= 10 q=42.1 size=     768KiB time=00:00:04.06 bitrate=1547.2kbits/s speed=0.083x elapsed=0:00:48.99    \nframe=  497 fps= 10 q=37.0 size=     768KiB time=00:00:04.12 bitrate=1525.3kbits/s speed=0.0833x elapsed=0:00:49.50    \nframe=  505 fps= 10 q=41.8 size=    1024KiB time=00:00:04.19 bitrate=2001.3kbits/s speed=0.0838x elapsed=0:00:50.01    \nframe=  512 fps= 10 q=38.6 size=    1024KiB time=00:00:04.25 bitrate=1973.9kbits/s speed=0.0841x elapsed=0:00:50.52    \nframe=  520 fps= 10 q=41.9 size=    1024KiB time=00:00:04.31 bitrate=1943.4kbits/s speed=0.0846x elapsed=0:00:51.04    \nframe=  527 fps= 10 q=38.5 size=    1024KiB time=00:00:04.37 bitrate=1917.5kbits/s speed=0.0849x elapsed=0:00:51.55    \nframe=  535 fps= 10 q=42.0 size=    1024KiB time=00:00:04.44 bitrate=1888.7kbits/s speed=0.0853x elapsed=0:00:52.08    \nframe=  543 fps= 10 q=40.8 size=    1024KiB time=00:00:04.50 bitrate=1860.8kbits/s speed=0.0857x elapsed=0:00:52.59    \nframe=  550 fps= 10 q=42.1 size=    1024KiB time=00:00:04.56 bitrate=1837.0kbits/s speed=0.086x elapsed=0:00:53.10    \nframe=  557 fps= 10 q=38.4 size=    1024KiB time=00:00:04.62 bitrate=1813.8kbits/s speed=0.0862x elapsed=0:00:53.62    \nframe=  564 fps= 10 q=41.8 size=    1024KiB time=00:00:04.68 bitrate=1791.2kbits/s speed=0.0865x elapsed=0:00:54.13    \nframe=  571 fps= 10 q=42.1 size=    1024KiB time=00:00:04.74 bitrate=1769.2kbits/s speed=0.0867x elapsed=0:00:54.66    \nframe=  576 fps= 10 q=42.3 size=    1024KiB time=00:00:04.78 bitrate=1753.8kbits/s speed=0.0867x elapsed=0:00:55.17    \nframe=  584 fps= 10 q=42.3 size=    1024KiB time=00:00:04.85 bitrate=1729.7kbits/s speed=0.0871x elapsed=0:00:55.68    \nframe=  590 fps= 10 q=42.2 size=    1024KiB time=00:00:04.90 bitrate=1712.0kbits/s speed=0.0872x elapsed=0:00:56.20    \nframe=  597 fps= 11 q=39.4 size=    1024KiB time=00:00:04.95 bitrate=1691.9kbits/s speed=0.0874x elapsed=0:00:56.71    \n[mp4 @ 000001a81368b780] Starting second pass: moving the moov atom to the beginning of the file\n[out#0/mp4 @ 000001a81368b640] video:1215KiB audio:0KiB subtitle:0KiB other streams:0KiB global headers:2KiB muxing overhead: 0.823351%\nframe=  600 fps= 11 q=42.2 Lsize=    1225KiB time=00:00:04.98 bitrate=2013.6kbits/s speed=0.0877x elapsed=0:00:56.81    \nx265 [info]: frame I:      3, Avg QP:41.35  kb/s: 6646.40 \nx265 [info]: frame P:    118, Avg QP:38.84  kb/s: 4570.32 \nx265 [info]: frame B:    479, Avg QP:42.13  kb/s: 1321.00 \nx265 [info]: Weighted P-Frames: Y:0.0% UV:0.0%\n\nencoded 600 frames in 56.75s (10.57 fps), 1986.66 kb/s, Avg QP:41.48\n",
  "seconds": 56.90988302230835,
  "probe_out": {}
}